<?xml version="1.0" encoding="utf-8"?>
<!-- Generator: Adobe Illustrator 21.0.2, SVG Export Plug-In . SVG Version: 6.00 Build 0)  -->
<svg version="1.1" id="Layer_1" xmlns="http://www.w3.org/2000/svg" xmlns:xlink="http://www.w3.org/1999/xlink" x="0px" y="0px"
	 viewBox="0 0 980 200" style="enable-background:new 0 0 980 200;" xml:space="preserve">
<style type="text/css">
	.st0{fill:#231F20;}
	.st1{fill:none;stroke:#231F20;stroke-width:2;stroke-miterlimit:10;}
</style>
<polygon class="st0" points="525.7,93.4 489.6,162.8 455,93.5 447.3,107.5 483.5,180 485.2,180 531,93.4 "/>
<path class="st0" d="M465.4,88.1c0,0.4-0.1,0.7-0.3,1c-0.2,0.2-0.5,0.4-0.8,0.6c-0.3,0.1-0.7,0.3-1.1,0.3c-0.4,0.1-0.8,0.1-1.2,0.1
	c-0.4,0-0.8,0-1.2,0c-0.4,0-0.7,0-0.9,0l0,3.3l-0.8,0l0-7.2h2.3c0.2,0,0.5,0,0.8,0c0.3,0,0.6,0,0.9,0.1c0.3,0,0.6,0.1,0.9,0.2
	c0.3,0.1,0.6,0.2,0.8,0.3c0.2,0.1,0.4,0.3,0.6,0.5C465.3,87.6,465.4,87.8,465.4,88.1z M464.4,88.1c0-0.3-0.1-0.6-0.4-0.8
	c-0.2-0.2-0.5-0.3-0.9-0.4c-0.3-0.1-0.7-0.2-1-0.2c-0.4,0-0.7,0-0.9,0h-1.5v3.1h1.5c0.3,0,0.6,0,1,0c0.4,0,0.7-0.1,1-0.2
	c0.3-0.1,0.6-0.3,0.8-0.5C464.3,88.8,464.4,88.5,464.4,88.1z"/>
<path class="st0" d="M472.6,93.5v-3.7h-5.2v3.7h-0.8v-7.2h0.8v3.1h5.2v-3.1h0.8v7.2H472.6z"/>
<path class="st0" d="M482.7,89.9c0,0.6-0.1,1.1-0.4,1.6c-0.2,0.5-0.5,0.9-0.9,1.2c-0.4,0.3-0.8,0.6-1.3,0.8c-0.5,0.2-1,0.3-1.6,0.3
	c-0.5,0-1.1-0.1-1.6-0.3c-0.5-0.2-0.9-0.4-1.3-0.8c-0.4-0.3-0.7-0.7-0.9-1.2c-0.2-0.5-0.3-1-0.3-1.5c0-0.6,0.1-1.1,0.4-1.5
	c0.2-0.5,0.5-0.9,0.9-1.2c0.4-0.3,0.8-0.6,1.3-0.8c0.5-0.2,1-0.3,1.5-0.3c0.5,0,1.1,0.1,1.6,0.3c0.5,0.2,1,0.4,1.3,0.8
	c0.4,0.3,0.7,0.7,0.9,1.2C482.6,88.8,482.7,89.4,482.7,89.9z M481.7,89.9c0-0.5-0.1-0.9-0.2-1.4c-0.1-0.4-0.3-0.8-0.6-1.1
	c-0.3-0.3-0.6-0.6-1-0.8c-0.4-0.2-0.8-0.3-1.3-0.3c-0.5,0-1,0.1-1.4,0.3c-0.4,0.2-0.7,0.4-1,0.8c-0.3,0.3-0.5,0.7-0.6,1.1
	c-0.1,0.4-0.2,0.9-0.2,1.4c0,0.5,0.1,0.9,0.2,1.4c0.1,0.4,0.3,0.8,0.6,1.1c0.3,0.3,0.6,0.6,1,0.8c0.4,0.2,0.8,0.3,1.3,0.3
	c0.5,0,0.9-0.1,1.3-0.3c0.4-0.2,0.7-0.4,1-0.8c0.3-0.3,0.5-0.7,0.6-1.1C481.6,90.8,481.7,90.4,481.7,89.9z"/>
<path class="st0" d="M486.8,86.7v6.8H486v-6.8H483v-0.4h6.7v0.4H486.8z"/>
<path class="st0" d="M498.4,89.9c0,0.6-0.1,1.1-0.4,1.6c-0.2,0.5-0.5,0.9-0.9,1.2c-0.4,0.3-0.8,0.6-1.3,0.8c-0.5,0.2-1,0.3-1.6,0.3
	c-0.5,0-1.1-0.1-1.6-0.3c-0.5-0.2-0.9-0.4-1.3-0.8c-0.4-0.3-0.7-0.7-0.9-1.2c-0.2-0.5-0.3-1-0.3-1.5c0-0.6,0.1-1.1,0.4-1.5
	c0.2-0.5,0.5-0.9,0.9-1.2c0.4-0.3,0.8-0.6,1.3-0.8c0.5-0.2,1-0.3,1.5-0.3c0.5,0,1.1,0.1,1.6,0.3c0.5,0.2,1,0.4,1.3,0.8
	c0.4,0.3,0.7,0.7,0.9,1.2C498.3,88.8,498.4,89.4,498.4,89.9z M497.4,89.9c0-0.5-0.1-0.9-0.2-1.4c-0.1-0.4-0.3-0.8-0.6-1.1
	c-0.3-0.3-0.6-0.6-1-0.8c-0.4-0.2-0.8-0.3-1.3-0.3c-0.5,0-1,0.1-1.4,0.3c-0.4,0.2-0.7,0.4-1,0.8c-0.3,0.3-0.5,0.7-0.6,1.1
	c-0.1,0.4-0.2,0.9-0.2,1.4c0,0.5,0.1,0.9,0.2,1.4c0.1,0.4,0.3,0.8,0.6,1.1c0.3,0.3,0.6,0.6,1,0.8c0.4,0.2,0.8,0.3,1.4,0.3
	c0.5,0,0.9-0.1,1.3-0.3c0.4-0.2,0.7-0.4,1-0.8c0.3-0.3,0.5-0.7,0.6-1.1C497.3,90.8,497.4,90.4,497.4,89.9z"/>
<path class="st0" d="M505.8,88.4c-0.1-0.3-0.2-0.6-0.4-0.8c-0.2-0.2-0.4-0.4-0.6-0.6c-0.2-0.2-0.5-0.3-0.8-0.4
	c-0.3-0.1-0.6-0.1-0.9-0.1c-0.5,0-0.9,0.1-1.3,0.3c-0.4,0.2-0.7,0.4-1,0.7c-0.3,0.3-0.5,0.7-0.6,1.1c-0.1,0.4-0.2,0.8-0.2,1.3
	c0,0.5,0.1,0.9,0.2,1.3c0.1,0.4,0.3,0.8,0.6,1.1c0.3,0.3,0.6,0.6,1,0.8c0.4,0.2,0.8,0.3,1.3,0.3c0.2,0,0.5,0,0.7-0.1
	c0.2,0,0.5-0.1,0.7-0.2c0.2-0.1,0.5-0.2,0.7-0.3c0.2-0.1,0.4-0.3,0.6-0.5v-2.1h-2.6v-0.4h3.4v2.7c-0.4,0.5-1,0.8-1.6,1
	c-0.6,0.2-1.3,0.3-1.9,0.3c-0.5,0-1-0.1-1.5-0.3c-0.5-0.2-0.9-0.4-1.3-0.8c-0.4-0.3-0.7-0.7-0.9-1.2c-0.2-0.5-0.4-1-0.4-1.5
	c0-0.6,0.1-1.1,0.3-1.6c0.2-0.5,0.5-0.9,0.9-1.2c0.4-0.3,0.8-0.6,1.3-0.8c0.5-0.2,1-0.3,1.6-0.3c0.9,0,1.6,0.2,2.2,0.5
	c0.6,0.4,1.1,0.9,1.4,1.8H505.8z"/>
<path class="st0" d="M513.8,93.5c-0.2-0.2-0.4-0.5-0.5-0.9c-0.1-0.4-0.2-0.7-0.4-1.1c-0.1-0.4-0.3-0.7-0.5-0.9
	c-0.2-0.3-0.5-0.4-0.9-0.4h-2.9v3.3h-0.8v-7.2h2.4c0.2,0,0.5,0,0.8,0c0.3,0,0.6,0,0.9,0.1c0.3,0,0.6,0.1,0.9,0.2
	c0.3,0.1,0.6,0.2,0.8,0.3c0.2,0.1,0.4,0.3,0.6,0.5c0.1,0.2,0.2,0.5,0.2,0.8c0,0.3-0.1,0.5-0.2,0.7c-0.1,0.2-0.3,0.4-0.5,0.5
	c-0.2,0.1-0.4,0.3-0.7,0.4c-0.2,0.1-0.5,0.2-0.7,0.2c0.3,0,0.6,0.1,0.8,0.2c0.2,0.1,0.4,0.3,0.5,0.5c0.1,0.2,0.2,0.4,0.3,0.7
	c0.1,0.2,0.2,0.5,0.3,0.8c0.1,0.3,0.2,0.5,0.3,0.7c0.1,0.2,0.3,0.4,0.5,0.6H513.8z M513.2,88.2c0-0.4-0.1-0.7-0.3-0.9
	c-0.2-0.2-0.5-0.3-0.8-0.4c-0.3-0.1-0.6-0.2-1-0.2c-0.3,0-0.7,0-0.9,0h-1.6v3.1h1.8c0.3,0,0.6,0,0.9,0c0.3,0,0.6-0.1,0.9-0.2
	c0.3-0.1,0.5-0.3,0.7-0.5C513.1,88.9,513.2,88.6,513.2,88.2z"/>
<path class="st0" d="M552.7,93.5c-0.2-0.2-0.4-0.5-0.5-0.9c-0.1-0.4-0.2-0.7-0.4-1.1c-0.1-0.4-0.3-0.7-0.5-0.9
	c-0.2-0.3-0.5-0.4-0.9-0.4h-2.9v3.3h-0.8v-7.2h2.4c0.2,0,0.5,0,0.8,0c0.3,0,0.6,0,0.9,0.1c0.3,0,0.6,0.1,0.9,0.2
	c0.3,0.1,0.6,0.2,0.8,0.3c0.2,0.1,0.4,0.3,0.6,0.5c0.1,0.2,0.2,0.5,0.2,0.8c0,0.3-0.1,0.5-0.2,0.7c-0.1,0.2-0.3,0.4-0.5,0.5
	c-0.2,0.1-0.4,0.3-0.7,0.4c-0.3,0.1-0.5,0.2-0.7,0.2c0.3,0,0.6,0.1,0.8,0.2c0.2,0.1,0.4,0.3,0.5,0.5c0.1,0.2,0.2,0.4,0.3,0.7
	c0.1,0.2,0.2,0.5,0.3,0.8c0.1,0.3,0.2,0.5,0.3,0.7c0.1,0.2,0.3,0.4,0.5,0.6H552.7z M552.1,88.2c0-0.4-0.1-0.7-0.3-0.9
	c-0.2-0.2-0.5-0.3-0.8-0.4c-0.3-0.1-0.6-0.2-1-0.2c-0.3,0-0.7,0-0.9,0h-1.6v3.1h1.8c0.3,0,0.6,0,0.9,0c0.3,0,0.6-0.1,0.9-0.2
	c0.3-0.1,0.5-0.3,0.7-0.5C552,88.9,552.1,88.6,552.1,88.2z"/>
<path class="st0" d="M522,93.5l-1.9-3.7h-2.7l-1.9,3.7h-0.5l4-7.4h0.2l3.8,7.4H522z M518.8,87.2l-1.2,2.2h2.3L518.8,87.2z"/>
<path class="st0" d="M529.9,88.2c0,0.4-0.1,0.7-0.3,1c-0.2,0.2-0.5,0.4-0.8,0.6c-0.3,0.1-0.7,0.3-1.1,0.3c-0.4,0.1-0.8,0.1-1.3,0.1
	c-0.4,0-0.8,0-1.2,0c-0.4,0-0.7,0-0.9,0v3.3h-0.8v-7.2h2.3c0.2,0,0.5,0,0.8,0c0.3,0,0.6,0,0.9,0.1c0.3,0,0.6,0.1,0.9,0.2
	c0.3,0.1,0.6,0.2,0.8,0.3c0.2,0.1,0.4,0.3,0.6,0.5C529.9,87.6,529.9,87.9,529.9,88.2z M529,88.2c0-0.3-0.1-0.6-0.4-0.8
	c-0.2-0.2-0.5-0.3-0.9-0.4c-0.3-0.1-0.7-0.2-1-0.2c-0.4,0-0.7,0-0.9,0h-1.5v3.1h1.5c0.3,0,0.6,0,1,0c0.4,0,0.7-0.1,1-0.2
	c0.3-0.1,0.6-0.3,0.8-0.5C528.9,88.9,529,88.6,529,88.2z"/>
<path class="st0" d="M536.9,93.5v-3.7h-5.2v3.7h-0.8v-7.2h0.8v3.1h5.2v-3.1h0.8v7.2H536.9z"/>
<polygon class="st0" points="543.3,86.7 545.3,86.7 545.3,86.3 539.9,86.3 539.7,86.3 539.1,86.3 539.1,93.5 539.7,93.5 539.9,93.5 
	543.3,93.5 545.3,93.5 545.3,93.1 539.9,93.1 539.9,89.8 543.6,89.8 543.6,89.5 539.9,89.5 539.9,86.7 "/>
<polygon class="st0" points="459.1,93.5 459,86.2 455,93.5 "/>
<path class="st0" d="M557.9,76.3c-5.8-34.6-37.5-58.9-72.3-55.6l-1.1,3.3l0.4,0c33.6-3.7,64.3,19.5,69.9,52.9
	c5.8,34.7-17.7,67.6-52.4,73.4c-1.4,0.2-2.8,0.4-4.2,0.6l-1.4,3.3c2-0.2,4.1-0.4,6.2-0.7C539.4,147.2,564,112.7,557.9,76.3z"/>
<path class="st0" d="M469.4,146.9c-20.5-7.8-36.5-26-40.4-49.1c-1.9-11.4-0.7-22.9,3.4-33.5l-1.9-3.6c-5.1,11.7-6.8,24.7-4.6,37.6
	c4.3,25.5,22.5,45.2,45.6,52.7L469.4,146.9z"/>
<line class="st1" x1="407.5" y1="134.6" x2="407.5" y2="113.7"/>
<line class="st1" x1="428.4" y1="134.6" x2="407.5" y2="134.6"/>
<polyline class="st1" points="428.4,49 407.5,49 407.5,70 "/>
<polyline class="st1" points="555.1,49 576,49 576,70 "/>
<polyline class="st1" points="555.1,134.6 576,134.6 576,113.7 "/>
<polygon class="st0" points="481.9,20.9 449.7,83 418.4,20.4 403.7,20.4 443.6,100.2 444.4,101.7 487.4,20.5 "/>
</svg>
